<svg id="eNDI8p6v19n1" xmlns="http://www.w3.org/2000/svg" xmlns:xlink="http://www.w3.org/1999/xlink" viewBox="0 0 1200 1200" shape-rendering="geometricPrecision" text-rendering="geometricPrecision"><path d="M0,0c.594741.533027,1.189482,1.066055,1.802246,1.615234C3.668187,3.297072,5.523933,4.989312,7.375,6.6875c.55905.510388,1.118101,1.020776,1.694092,1.546631c3.629268,3.376703,6.907961,6.954204,10.140381,10.710449C22.20885,22.387689,25.358892,25.686605,28.5,29c1.414207,1.49726,2.828266,2.994659,4.242188,4.492188c1.064926,1.126801,1.064926,1.126801,2.151367,2.276367C38.145305,39.21327,41.385909,42.668384,44.625,46.125c.925225.9871.925225.9871,1.869141,1.994141c4.746218,5.065627,9.48442,10.138707,14.217041,15.217041c3.09948,3.324417,6.206671,6.641256,9.323974,9.948974.672246.714141,1.344492,1.428282,2.03711,2.164063c1.287629,1.367237,2.576603,2.733209,3.867187,4.097656C79.435441,83.261122,82.777104,87.046013,86,91c3.960021-2.880015,6.958214-6.163635,10.113281-9.859375C97.999067,79.001059,99.96606,76.998533,102,75c2.476596-2.439001,4.820309-4.907424,7.0625-7.5625c29.169892-33.581592,68.845837-56.095958,113.709473-59.308594c46.096925-2.667014,87.850636,12.305347,122.489746,42.722657C352.227701,57.061672,358.349283,63.544604,364,71c.424907.544629.849814,1.089258,1.287598,1.650391C394.604401,110.248479,406.353796,157.791718,400.875,204.9375C396.617656,237.14907,384.530681,267.687744,364,293c-.445693.552524-.891387,1.105049-1.350586,1.674316C334.565569,329.244238,294.74572,350.726076,250.4375,355.75c-1.810848.113711-3.624001.192352-5.4375.25-.666929.025781-1.333857.051563-2.020996.078125C202.496934,357.470158,161.566893,345.219794,131,318c-.790195-.681914-1.580391-1.363828-2.394531-2.066406-9.566879-8.39227-18.802915-17.416939-27.027344-27.136719-2.433181-2.770454-5.084456-5.312835-7.710937-7.898437C91.400709,278.390679,89.196409,275.745511,87,273c-.724453.725742-1.448906,1.451484-2.195312,2.199219-1.739505,1.737081-3.483461,3.469732-5.234375,5.195312-4.471862,4.421857-8.771998,8.89758-12.859375,13.675782-2.455451,2.769389-5.101901,5.330038-7.738282,7.925781-2.546034,2.586368-4.892872,5.319259-7.257812,8.070312-2.216538,2.499285-4.586467,4.816413-6.96875,7.15625-1.81087,1.84328-3.499308,3.755572-5.183594,5.714844-3.039297,3.528848-6.272668,6.79255-9.589844,10.058594-2.546034,2.586368-4.892872,5.319259-7.257812,8.070312-2.218461,2.501454-4.589645,4.820871-6.976563,7.160157-1.779111,1.815093-3.411919,3.706366-5.050781,5.648437C-1.977511,368.469119,-18.575557,380.03739,-35,390c-1.040999.637844-1.040999.637844-2.103027,1.288574-49.325991,29.885139-109.088407,36.319511-164.700684,23.509278C-237.112459,405.98415,-268.96437,388.182332,-296,364c-.562354-.50064-1.124707-1.001279-1.704102-1.51709-5.918052-5.292392-11.651907-10.59169-16.756835-16.689941-1.598983-1.862775-3.28621-3.574864-5.039063-5.292969-2.433897-2.390532-4.713556-4.850463-6.9375-7.4375-2.418678-2.808263-4.921497-5.462206-7.5625-8.0625-3.272021-3.221585-6.293161-6.585921-9.285156-10.066406-1.674887-1.88854-3.41432-3.66515-5.214844-5.433594-2.433897-2.390532-4.713556-4.850463-6.9375-7.4375-2.418678-2.808263-4.921497-5.462206-7.5625-8.0625-3.264707-3.214384-6.279707-6.570812-9.265625-10.042969C-375.036886,280.83,-378.011491,277.917542,-381,275c-.66-.66-1.32-1.32-2-2-.836602.897188-1.673203,1.794375-2.535156,2.71875-2.464992,2.643007-4.931387,5.284697-7.398438,7.925781-2.64132,2.827677-5.279022,5.658659-7.914062,8.492188-3.123246,3.354597-6.261077,6.694929-9.41211,10.023437-1.100746,1.163752-2.198764,2.330096-3.292968,3.5-29.306278,31.223511-70.065551,48.984007-112.72461,50.589844-46.782474.971543-87.950554-17.313667-121.625-49.1875C-652.37986,302.714391,-656.233545,297.969355,-660,293c-.637361-.816943-.637361-.816943-1.287598-1.650391-29.29991-37.576423-41.053479-85.154084-35.587402-132.287109c5.627849-43.252034,27.279416-86.806522,62.148438-113.988281C-633.376914,44.04748,-633.376914,44.04748,-632,43c.920391-.736055,1.840781-1.472109,2.789063-2.230469C-604.650528,21.538267,-572.273762,8.994133,-541,8c.666929-.025781,1.333857-.051562,2.020996-.078125C-498.496934,6.529842,-457.566893,18.780206,-427,46c.790195.681914,1.580391,1.363828,2.394531,2.066406c9.566879,8.39227,18.802915,17.416939,27.027344,27.136719c2.433181,2.770454,5.084456,5.312835,7.710938,7.898438C-387.400709,85.609321,-385.196409,88.254489,-383,91c.724453-.725742,1.448906-1.451484,2.195313-2.199219c1.739504-1.737081,3.48346-3.469732,5.234375-5.195312c4.471861-4.421857,8.771997-8.89758,12.859375-13.675781c2.45545-2.76939,5.1019-5.330039,7.738281-7.925782c2.546034-2.586368,4.892872-5.319259,7.257812-8.070312c2.216538-2.499285,4.586467-4.816413,6.96875-7.15625c1.81087-1.84328,3.499308-3.755572,5.183594-5.714844c2.968556-3.446712,6.103291-6.653609,9.375-9.8125c2.542227-2.614862,4.91357-5.352691,7.305176-8.10498c3.040314-3.464618,6.173646-6.839182,9.319824-10.20752.616816-.668379,1.233633-1.336758,1.869141-2.025391C-303.374966,6.288148,-298.814243,2.100025,-294,-2c.88043-.785039,1.760859-1.570078,2.667969-2.378906C-213.292845,-76.574363,-77.746094,-77.287965,0,0ZM-271,16c-.733477.623906-1.466953,1.247813-2.222656,1.890625-5.711211,4.996118-11.088788,10.320127-16.464844,15.671875-.712932.708259-1.425864,1.416519-2.1604,2.14624-4.044134,4.05635-7.895672,8.218883-11.635743,12.556641C-305.237346,50.271509,-307.083419,52.149508,-309,54c-3.272021,3.221586-6.293161,6.585921-9.285156,10.066406-2.216538,2.499285-4.586467,4.816413-6.96875,7.15625-1.81087,1.84328-3.499308,3.755572-5.183594,5.714844-3.039297,3.528848-6.272668,6.79255-9.589844,10.058594-2.546034,2.586368-4.892872,5.319259-7.257812,8.070312-2.206776,2.488279-4.565333,4.795866-6.9375,7.125C-357.30154,105.324424,-360.147307,108.661743,-363,112c3.767912,5.548529,8.103174,10.23726,12.893066,14.924316c3.324698,3.261349,6.41027,6.641168,9.431153,10.181153c2.440569,2.759152,5.07673,5.305869,7.703125,7.886719c2.490907,2.535299,4.776089,5.214045,7.039062,7.953125C-323.170196,155.881771,-320.093789,158.41979,-317,161c8.278628-8.782869,16.54788-17.574073,24.777832-26.402588C-287.98937,130.057482,-283.74686,125.526776,-279.5,121c4.860542-5.181569,9.715643-10.368127,14.5625-15.5625.85066-.911448.85066-.911448,1.718506-1.841309c3.01293-3.229025,6.023408-6.460308,9.031494-9.693847.627693-.674099,1.255386-1.348198,1.9021-2.042725c1.19429-1.282651,2.387863-2.565971,3.580566-3.850098c2.471425-2.653217,4.956334-5.25721,7.540772-7.80249c2.222754-2.033041,2.222754-2.033041,3.226562-4.394531C-237,74,-237,74,-235.175781,73.105469c2.442844-1.241158,3.967179-2.693874,5.925781-4.605469c15.672303-14.135802,35.876917-22.856209,56.25-27.5c1.049297-.246211,2.098594-.492422,3.179688-.746094c32.234356-6.198914,64.924449,2.284065,92.074218,19.851563C-75.093487,61.995875,-72.538947,63.96006,-70,66c1.415391,1.096348,1.415391,1.096348,2.859375,2.214844c4.984526,3.94047,9.408381,7.931258,13.464844,12.820312C-51.880697,83.139882,-49.974527,85.063227,-48,87c3.2503,3.200295,6.247242,6.542246,9.21875,10c2.483824,2.788855,5.148364,5.37687,7.808594,7.996094c2.546034,2.586368,4.892872,5.319259,7.257812,8.070312c1.674887,1.88854,3.41432,3.66515,5.214844,5.433594c2.433897,2.390532,4.713556,4.850463,6.9375,7.4375C-9.143822,128.745763,-6.641003,131.399706,-4,134c3.2503,3.200295,6.247242,6.542246,9.21875,10c1.855502,2.083371,3.793481,4.042812,5.78125,6c2.558693,2.519554,4.981706,5.081188,7.3125,7.8125c3.717574,4.330081,7.764096,8.297588,11.84375,12.28125c2.817761,2.813765,5.40321,5.809015,8.009277,8.817871c3.044693,3.466103,6.222831,6.803673,9.396973,10.150879c1.415625,1.498452,2.830984,2.997155,4.246094,4.496094.703667.744917,1.407334,1.489834,2.132324,2.257324C57.01357,199.0751,60.070713,202.348614,63.125,205.625c.569202.610452,1.138403,1.220903,1.724854,1.849854c1.144227,1.227361,2.288352,2.454818,3.432373,3.682373C71.186592,214.272939,74.093433,217.386341,77,220.5c1.166678,1.249989,2.333345,2.499989,3.5,3.75.86625.928125.86625.928125,1.75,1.875c5.25,5.625,5.25,5.625,6.999756,7.499756c1.167457,1.250835,2.334938,2.501649,3.502441,3.752441c2.904761,3.112041,5.809126,6.22445,8.712647,9.337647c6.629425,7.107222,13.264351,14.209187,19.920654,21.29126c3.112296,3.313558,6.212067,6.637223,9.286377,9.986084C154.290443,303.683628,183.37278,323.432762,219,327c.629868.065581,1.259736.131162,1.908691.19873C244.793219,329.537272,268.139696,325.797004,290,316c1.173047-.524648,2.346094-1.049297,3.554688-1.589844C306.545907,308.26175,317.644127,299.932519,328,290c.943594-.868828,1.887188-1.737656,2.859375-2.632812c27.574369-25.900741,41.933561-63.96926,43.167969-101.336915C374.610039,145.780599,360.716393,108.231437,333,79c-.441826-.474375-.883652-.94875-1.338867-1.4375C306.758121,50.943832,273.101416,37.44378,237,36c-36.274459-.666755-69.733131,14.187482-95.78125,38.835938-5.937008,5.754731-11.515799,11.863109-17.131348,17.928222-2.127901,2.279219-4.281084,4.531733-6.442871,6.778809-.695691.727434-1.391382,1.454868-2.108154,2.204345-1.333284,1.393067-2.671808,2.781141-4.016113,4.163575-.5945.624953-1.188999,1.249907-1.801514,1.893799-.526582.546401-1.053164,1.092802-1.595703,1.655761C106.705336,111.08634,106.705336,111.08634,107,114c1.985452,2.314169,1.985452,2.314169,4.5625,4.6875c3.153131,3.055566,6.211859,6.097422,9.0625,9.4375c2.971652,3.473903,6.150162,6.669006,9.40625,9.875c1.908615,1.93891,3.695856,3.936996,5.46875,6c3.62777,4.215833,7.534558,8.104537,11.5,12c1.667854,1.665478,3.334774,3.331893,5,5c5.660611-5.568486,11.231575-11.128417,16.390625-17.171875c2.173093-2.468465,4.514099-4.743479,6.859375-7.046875c1.832425-1.865147,3.543531-3.800527,5.25-5.78125c13.31935-15.327589,29.663468-25.602706,50.3125-27.316406C249.13984,102.889792,266.149765,108.895353,280,121c2.6875,2.5,2.6875,2.5,5,5c.703828.748301.703828.748301,1.421875,1.511719c14.206176,15.707344,19.993479,36.765672,19.792969,57.574219C305.02889,206.691862,297.085619,227.120802,281,242c-.475664.457617-.951328.915234-1.441406,1.386719-13.40708,12.308668-30.27978,17.228487-48.195313,16.886719C209.352879,259.281668,192.626269,246.490998,178,231c-1.810193-2.025518-3.589327-4.072773-5.355469-6.136719-2.188485-2.47959-4.539971-4.769493-6.898437-7.085937-1.81087-1.84328-3.499308-3.755572-5.183594-5.714844-2.418678-2.808263-4.921497-5.462206-7.5625-8.0625-2.479633-2.446634-4.854404-4.921078-7.125-7.5625C140.128639,189.768081,134.023587,183.417768,128,177c-1.250086-1.333252-2.500087-2.666585-3.75-4-1.880599-2.006103-3.761332-4.012081-5.642578-6.017578-4.782156-5.098658-9.554334-10.206532-14.320313-15.320313C101.19934,148.350537,98.104492,145.045906,95,141.75c-.667734-.709629-1.335469-1.419258-2.023437-2.150391-1.274738-1.354093-2.55069-2.707045-3.828125-4.058593-2.831348-3.009087-5.603407-6.043633-8.273438-9.197266C78.385779,123.409702,75.759462,120.685,73,118c-5.630804-5.556059-11.186147-11.084483-16.324219-17.105469C54.233458,98.133397,51.594457,95.585312,48.96875,93c-2.523005-2.563052-4.844378-5.273458-7.1875-8-2.483824-2.788855-5.148364-5.37687-7.808594-7.996094-2.546034-2.586368-4.892872-5.319259-7.257812-8.070312C25.039957,67.045054,23.300524,65.268444,21.5,63.5c-2.433897-2.390532-4.713556-4.850463-6.9375-7.4375-2.968556-3.446712-6.103291-6.653609-9.375-9.8125-1.883101-1.936904-3.648555-3.914389-5.414062-5.957031-35.741152-41.089974-83.220049-64.839885-137.46875-68.996094C-185.59548,-31.748549,-234.675664,-15.338643,-271,16ZM-581.041394,237.891639c-1.968458-2.58-3.862729-4.450247-5.708606-6.829139-13.080909-17.891461-17.700113-40.669096-14.429199-62.451416c2.516509-14.91643,8.093026-27.980465,17.726074-39.665771c1.640565-1.983639,3.457218-3.941407,3.457218-3.941407s1.88-1.90381,2.995907-3.003906c1.027439-.864226,2.026884-1.762533,3-2.6875c13.78892-11.999294,30.881883-16.29548,48.834473-15.48291c26.237368,2.064677,42.475208,19.892156,59.253906,38.101562c3.137913,3.396,6.307655,6.761998,9.474121,10.131348c5.39867,5.75578,10.785888,11.522151,16.168213,17.293213c4.249245,4.554851,8.507431,9.101236,12.769287,13.644287c5.419201,5.776756,10.828155,11.56292,16.230469,17.355469c4.249345,4.554915,8.507596,9.101396,12.769531,13.644531c4.840569,5.159946,9.674489,10.325969,14.5,15.5c7.318887,7.846894,14.658453,15.674312,22,23.5c7.920983,8.443336,15.836338,16.891735,23.73291,25.35791C-331.524862,285.584565,-324.762113,292.791957,-318,300c1.892794,2.017615,3.785524,4.035289,5.677979,6.053223c1.255393,1.3385,2.511089,2.676717,3.767089,4.014648c3.038208,3.238377,6.068816,6.483199,9.082276,9.744629c3.468074,3.750914,6.960683,7.477669,10.472656,11.1875.592485.627935,1.184971,1.255869,1.79541,1.902832C-251.71026,370.265786,-203.413845,391.287844,-152,393c31.073669.447501,61.131277-6.303403,89-20c.643403-.310181,1.286807-.620361,1.949707-.939941c26.748829-13.01313,49.33055-34.001874,68.580078-56.37378C9.26614,313.694748,11.099588,311.834881,13,310c3.272021-3.221585,6.293161-6.585921,9.285156-10.066406c2.216538-2.499285,4.586467-4.816413,6.96875-7.15625c1.81087-1.84328,3.499308-3.755572,5.183594-5.714844c3.039297-3.528848,6.272668-6.79255,9.589844-10.058594c2.546034-2.586368,4.892872-5.319259,7.257812-8.070312c2.206776-2.488279,4.565333-4.795866,6.9375-7.125C61.30154,258.675576,64.147307,255.338257,67,252c-3.977645-5.788606-8.530685-10.64723-13.546875-15.550781-2.75294-2.748557-5.281078-5.632236-7.808594-8.585938C43.996012,225.995482,42.276964,224.245444,40.5,222.5c-3.714139-3.656106-7.103236-7.550796-10.5-11.5-1.311228-1.501112-2.62369-3.001147-3.9375-4.5-1.020833-1.166667-2.041667-2.333333-3.0625-3.5-2.88322,1.295781-4.834475,2.617446-6.960937,4.949219-.546482.592888-1.092964,1.185776-1.656006,1.796631-.870238.961117-.870238.961117-1.758057,1.94165-1.25897,1.369925-2.518089,2.739712-3.777344,4.109375-.640503.700605-1.281006,1.401211-1.940918,2.123047-2.926591,3.192645-5.885519,6.354736-8.844238,9.517578-1.165411,1.248655-2.330775,2.497353-3.496094,3.746094-4.312753,4.617491-8.635846,9.225272-12.958496,13.833496-4.229296,4.509715-8.452271,9.025258-12.67041,13.54541-.574358.614883-1.148716,1.229766-1.740479,1.863281-2.893964,3.099484-5.781508,6.204564-8.657958,9.320313C-44.950006,273.520234,-48.464884,277.268969,-52,281c-.914832.968005-.914832.968005-1.848145,1.955566-22.638538,23.794348-52.191104,40.713488-85.707519,42.154297-11.252442.24733-22.393963.250047-33.444336-2.109863-.987341-.210037-.987341-.210037-1.994629-.424316-28.144653-6.24644-49.106052-21.689229-69.192871-41.638184-.66564-.660806-1.331279-1.321611-2.01709-2.002441-3.896905-3.910473-7.610326-7.92505-11.197021-12.122315-1.631373-1.850151-3.337257-3.586368-5.098389-5.312744-2.433897-2.390532-4.713556-4.850463-6.9375-7.4375-2.418678-2.808263-4.921497-5.462206-7.5625-8.0625-3.2503-3.200295-6.247242-6.542246-9.21875-10-2.483824-2.788855-5.148364-5.37687-7.808594-7.996094-2.546034-2.586368-4.892872-5.319259-7.257812-8.070312-1.674887-1.88854-3.41432-3.66515-5.214844-5.433594-2.433897-2.390532-4.713556-4.850463-6.9375-7.4375-2.418678-2.808263-4.921497-5.462206-7.5625-8.0625-3.272021-3.221585-6.293161-6.585921-9.285156-10.066406-1.674887-1.88854-3.41432-3.66515-5.214844-5.433594-2.433897-2.390532-4.713556-4.850463-6.9375-7.4375-2.418678-2.808263-4.921497-5.462206-7.5625-8.0625-3.2503-3.200295-6.247242-6.542246-9.21875-10-2.483824-2.788855-5.148364-5.37687-7.808594-7.996094-2.546034-2.586368-4.892872-5.319259-7.257812-8.070312-1.674887-1.88854-3.41432-3.66515-5.214844-5.433594-2.433897-2.390532-4.713556-4.850463-6.9375-7.4375-2.418678-2.808263-4.921497-5.462206-7.5625-8.0625-3.272021-3.221585-6.293161-6.585921-9.285156-10.066406-1.674887-1.88854-3.41432-3.66515-5.214844-5.433594-2.433897-2.390532-4.713556-4.850463-6.9375-7.4375-2.418678-2.808263-4.921497-5.462206-7.5625-8.0625-2.620406-2.580092-5.103234-5.211036-7.5-8-21.130999-24.352765-52.145888-41.760488-84.5-45-.629868-.065581-1.259736-.131162-1.908691-.19873-43.308013-4.240301-82.493818,11.944481-112.84668,42.466308-27.444566,28.483144-40.868027,67.542737-40.27417,106.769287C-668.756664,223.558028,-654.781342,257.809388,-629,285c.441826.474375.883652.94875,1.338867,1.4375C-620.162545,294.452692,-612.185865,301.002996,-603,307c1.411523.937793,1.411523.937793,2.851563,1.894531c29.661031,18.506813,66.375793,22.991047,100.125,15.394532c33.505331-8.204061,57.079755-28.34867,79.952148-53.069336c2.12089-2.272883,4.267583-4.518508,6.422852-6.758789.696254-.727999,1.392509-1.455997,2.109863-2.206055c1.334111-1.393867,2.673445-2.782759,4.018554-4.166016.891629-.937309.891629-.937309,1.80127-1.893554.526582-.546402,1.053164-1.092803,1.595703-1.655762C-402.705336,252.91366,-402.705336,252.91366,-403,250c-1.297787-1.62577-1.297787-1.62577-3.0625-3.1875-2.622941-2.506835-5.077347-5.056313-7.4375-7.8125-2.245579-2.606476-4.545515-5.089345-7-7.5-2.433897-2.390532-4.713556-4.850463-6.9375-7.4375-3.032902-3.521423-6.253977-6.781926-9.574219-10.03125-2.655844-2.71324-5.057251-5.612876-7.445312-8.5625-1.550083-1.813486-1.550083-1.813486-4.542969-1.46875-2.351713,1.945725-2.351713,1.945725-4.75,4.5-.888164.913945-1.776328,1.827891-2.691406,2.769531-2.713846,2.89615-5.334024,5.852107-7.914063,8.867188-2.187268,2.478212-4.53733,4.766923-6.894531,7.082031-1.832425,1.865147-3.543531,3.800527-5.25,5.78125-1.165397,1.334443-2.332021,2.667816-3.5,4-.496289.576211-.992578,1.152422-1.503906,1.746094-11.545921,12.529783-28.521239,20.155015-45.324219,21.578125C-545.234243,260.84753,-562.025875,255.25332,-576,243c-.534961-.56332-1.069922-1.126641-1.621094-1.707031m347.421875-132.863281c-1.105501,1.276916-2.205156,2.558935-3.296875,3.847656-2.131081,2.441056-4.447127,4.675797-6.757812,6.945312-1.81087,1.84328-3.499308,3.755572-5.183594,5.714844-2.418678,2.808263-4.921497,5.462206-7.5625,8.0625-2.620406,2.580092-5.103234,5.211036-7.5,8-3.016419,3.510015-6.230951,6.750513-9.527344,9.996094-2.546034,2.586368-4.892872,5.319259-7.257812,8.070312-2.212877,2.495158-4.578543,4.808706-6.957031,7.144532-2.492868,2.537184-4.791926,5.228473-7.113282,7.921875-2.11584,2.402307-4.346997,4.639275-6.644531,6.867187c1.484137,3.486545,3.462141,5.641911,6.1875,8.25c3.56869,3.483042,6.888319,7.068812,10.132813,10.851563c2.201341,2.488027,4.560572,4.790378,6.929687,7.117187c2.456348,2.500212,4.713094,5.158055,7,7.8125c1.687983,1.898981,3.437697,3.68881,5.25,5.46875c2.433897,2.390532,4.713556,4.850463,6.9375,7.4375c2.418678,2.808263,4.921497,5.462206,7.5625,8.0625c3.272021,3.221586,6.293161,6.585921,9.285156,10.066406c1.674887,1.88854,3.41432,3.66515,5.214844,5.433594c2.351726,2.310194,4.550393,4.677822,6.6875,7.1875c20.294684,23.323067,44.513423,37.123833,75.691406,39.535156C-125.42268,299.04472,-100.834462,289.264924,-82,272c6.781587-6.448666,13.379424-13.066154,19.429688-20.210937c2.397363-2.731325,5.009134-5.236535,7.597656-7.785157c2.546034-2.586368,4.892872-5.319259,7.257812-8.070312c2.216538-2.499285,4.586467-4.816413,6.96875-7.15625c1.81087-1.84328,3.499308-3.755572,5.183594-5.714844c3.039297-3.528848,6.272668-6.79255,9.589844-10.058594c2.546034-2.586368,4.892872-5.319259,7.257812-8.070312c2.212877-2.495158,4.578543-4.808706,6.957032-7.144531c2.492867-2.537185,4.791925-5.228474,7.113281-7.921875C-2.528691,187.46488,-0.297534,185.227912,2,183c-1.484137-3.486545-3.462141-5.641911-6.1875-8.25-3.56869-3.483042-6.888319-7.068812-10.132812-10.851562-2.20256-2.489405-4.563214-4.792948-6.933594-7.121094-1.81087-1.84328-3.499308-3.755572-5.183594-5.714844-2.418678-2.808263-4.921497-5.462206-7.5625-8.0625-3.2503-3.200295-6.247242-6.542246-9.21875-10-2.483824-2.788855-5.148364-5.37687-7.808594-7.996094-2.546034-2.586368-4.892872-5.319259-7.257812-8.070312-1.674887-1.88854-3.41432-3.66515-5.214844-5.433594-2.372241-2.330254-4.591135-4.721044-6.75-7.25C-88.984699,82.725913,-112.211966,68.792612,-141,66c-36.876939-2.493459-65.292694,16.017861-89.199219,42.429688Zm-258.261718,50.328125c-2.146476-2.451558-3.966945-4.420906-6.298212-6.695313-1.802015-1.846559-3.91643-4.06906-5.553351-6.0625-7.559066-8.728518-16.645643-13.589601-28-14.875-12.511476-.679029-22.892705,4.129414-31.9375,12.625-10.035122,10.702781-14.897677,24.62996-14.75,39.25c1.052411,16.387537,6.483954,29.120196,18.4375,40.3125c8.372593,7.125913,17.006891,10.091511,28,9.5625c17.469925-1.807934,27.517558-13.537785,38.712891-25.852051c3.642978-3.984388,7.355668-7.904315,11.055664-11.835693C-475.080201,191.219395,-471.503935,187.154215,-468,183m664.75-28.96875c-1.687983,1.898981-3.437697,3.68881-5.25,5.46875-3.065516,3.010897-5.866539,6.186832-8.660156,9.449219-2.59358,2.890933-5.401533,5.540854-8.238281,8.191406C172.833538,179.193258,172.121723,180.290333,172,183c1.130339,1.962654,1.130339,1.962654,2.9375,3.75.648398.696094,1.296797,1.392188,1.964844,2.109375c2.683228,2.738192,5.393193,5.44702,8.125,8.136719c2.546034,2.586368,4.892872,5.319259,7.257812,8.070312c2.217432,2.500294,4.585425,4.819526,6.976563,7.152344c1.802015,1.846559,3.41386,3.78781,5.050781,5.78125c7.559066,8.728518,16.645643,13.589601,28,14.875c11.570397.627955,21.033299-3.359486,29.878906-10.691406c10.706514-10.056403,16.072095-23.502607,16.839844-38.089844-.162158-16.053665-4.869827-29.849791-16.199219-41.28125-8.117247-7.600314-16.10849-11.083864-27.144531-12.125-17.465111,1.480094-27.972649,10.616691-38.9375,23.34375Z" transform="translate(747.997254 418)"/></svg>
